<svg width="32" height="32" viewBox="0 0 32 32" fill="none" xmlns="http://www.w3.org/2000/svg">
<rect width="32" height="32" rx="6" fill="#4F46E5"/>
<path d="M8 10C8 8.89543 8.89543 8 10 8H12C13.1046 8 14 8.89543 14 10V12C14 13.1046 13.1046 14 12 14H10C8.89543 14 8 13.1046 8 12V10Z" fill="white"/>
<path d="M18 10C18 8.89543 18.8954 8 20 8H22C23.1046 8 24 8.89543 24 10V12C24 13.1046 23.1046 14 22 14H20C18.8954 14 18 13.1046 18 12V10Z" fill="white"/>
<path d="M10 16C8.89543 16 8 16.8954 8 18V20C8 21.1046 8.89543 22 10 22H22C23.1046 22 24 21.1046 24 20V18C24 16.8954 23.1046 16 22 16H10Z" fill="white"/>
<circle cx="11" cy="11" r="1.5" fill="#4F46E5"/>
<circle cx="21" cy="11" r="1.5" fill="#4F46E5"/>
</svg>
